<?xml version="1.0" encoding="UTF-8"?>
<svg width="21px" height="21px" viewBox="0 0 21 21" version="1.1" xmlns="http://www.w3.org/2000/svg" xmlns:xlink="http://www.w3.org/1999/xlink">
    <!-- Generator: Sketch 42 (36781) - http://www.bohemiancoding.com/sketch -->
    <title>About</title>
    <desc>Created with Sketch.</desc>
    <defs></defs>
    <g id="Page-1" stroke="none" stroke-width="1" fill="none" fill-rule="evenodd">
        <g id="About" fill-rule="nonzero" fill="#F71E1E">
            <g id="Page-1">
                <g id="Les-svgs">
                    <path d="M15.0699501,8.18331325 C15.0812228,8.22527193 15.0571181,8.26937627 15.0038539,8.3106255 C14.9401632,8.42549912 14.8721238,8.52168491 14.785645,8.58499789 C13.919518,9.21910589 13.100098,9.93485189 13.100098,9.93485189 C13.100098,9.93485189 12.348545,10.3522549 12.027344,11.2036499 C11.706143,12.0550449 11.77832,12.2778689 12.027344,12.7783569 C12.276367,13.2788459 14.032517,13.3563989 15.2854,13.8655159 C16.538284,14.3746329 16.566218,14.2852919 17.704346,15.0852419 C18.842474,15.8851929 19.11779,16.2603229 19.750244,17.0036989 C20.382698,17.7470749 20.766846,18.6848519 20.766846,18.6848519 L20.846924,20.6902229 L0.04248,20.7947149 L0,18.5002809 C0,18.5002809 0.105122,18.1958919 0.813965,17.3445189 C1.522808,16.4931469 1.410038,16.4564949 2.321533,15.7119509 C3.233029,14.9674079 3.117931,15.0395669 4.346191,14.4592659 C5.574452,13.8789639 6.922119,13.5383669 6.922119,13.5383669 L9.666748,13.0759649 C9.666748,13.0759649 10.315708,11.7454769 9.571533,10.6111209 C8.827359,9.47676489 7.878088,9.80370289 6.970703,8.96634589 C6.063319,8.12898889 5.463379,7.68045689 5.234131,6.72940689 C5.004883,5.77835689 5.066556,5.31685889 5.234131,4.25491989 C5.401705,3.19298089 5.535808,3.04818689 6.171875,2.18127389 C6.807942,1.31436189 7.189879,1.12753589 7.827393,0.720495889 C8.464906,0.313455889 9.074742,0.106216889 9.963379,0.0151738895 C10.852016,-0.0758701105 12.497218,0.224712889 13.641846,1.41019289 C14.786473,2.59567389 15.526855,4.19803489 15.526855,4.19803489 C15.526855,4.19803489 16.982802,4.50234689 17.548828,4.89163889 C18.114854,5.28092989 18.116771,5.43292689 18.275391,5.77835689 C18.327627,5.89211289 18.13106,6.67039289 17.548828,6.85550589 C17.067938,7.00839789 16.283123,6.88575089 15.83667,7.15726389 C15.4037017,7.42057476 15.2347351,7.84977759 15.0699502,8.18331303 Z M12.997387,2.18127389 L13.772046,4.33386189 L13.866138,4.30000089 L13.40851,3.02836189 L13.09148,2.14741289 L12.997387,2.18127389 Z M15.0699501,8.18331325 C15.0650911,8.16522731 15.053659,8.14754002 15.035156,8.13065189 C14.76442,7.88354589 11.025146,6.45072089 11.025146,6.45072089 C11.025146,6.45072089 11.668681,7.46534389 12.865723,8.13065189 C13.7911585,8.64500402 14.7441397,8.51175499 15.0038539,8.3106255 C15.0262188,8.27028761 15.0480476,8.22764539 15.0699502,8.18331303 Z" id="About"></path>
                </g>
            </g>
        </g>
    </g>
</svg>