<?xml version="1.0" encoding="UTF-8"?>
<svg width="21px" height="22px" viewBox="0 0 21 22" version="1.1" xmlns="http://www.w3.org/2000/svg" xmlns:xlink="http://www.w3.org/1999/xlink">
    <!-- Generator: Sketch 42 (36781) - http://www.bohemiancoding.com/sketch -->
    <title>About</title>
    <desc>Created with Sketch.</desc>
    <defs></defs>
    <g id="Page-1" stroke="none" stroke-width="1" fill="none" fill-rule="evenodd">
        <g id="Les-svgs" transform="translate(-358.000000, -115.000000)" fill="#000000">
            <path d="M370.997387,117.877526 L371.772046,120.030114 L371.866138,119.996253 L371.40851,118.724614 L371.09148,117.843665 M367.963379,115.711426 C368.852016,115.620382 370.497218,115.920965 371.641846,117.106445 C372.786473,118.291926 373.526855,119.894287 373.526855,119.894287 C373.526855,119.894287 374.982802,120.198599 375.548828,120.587891 C376.114854,120.977182 376.116771,121.129179 376.275391,121.474609 C376.327627,121.588365 376.13106,122.366645 375.548828,122.551758 C375.067938,122.70465 374.283123,122.582003 373.83667,122.853516 C373.182267,123.251493 373.130958,124.028439 372.785645,124.28125 C371.919518,124.915358 371.100098,125.631104 371.100098,125.631104 C371.100098,125.631104 370.348545,126.048507 370.027344,126.899902 C369.706143,127.751297 369.77832,127.974121 370.027344,128.474609 C370.276367,128.975098 372.032517,129.052651 373.2854,129.561768 C374.538284,130.070885 374.566218,129.981544 375.704346,130.781494 C376.842474,131.581445 377.11779,131.956575 377.750244,132.699951 C378.382698,133.443327 378.766846,134.381104 378.766846,134.381104 L378.846924,136.386475 L358.04248,136.490967 L358,134.196533 C358,134.196533 358.105122,133.892144 358.813965,133.040771 C359.522808,132.189399 359.410038,132.152747 360.321533,131.408203 C361.233029,130.66366 361.117931,130.735819 362.346191,130.155518 C363.574452,129.575216 364.922119,129.234619 364.922119,129.234619 L367.666748,128.772217 C367.666748,128.772217 368.315708,127.441729 367.571533,126.307373 C366.827359,125.173017 365.878088,125.499955 364.970703,124.662598 C364.063319,123.825241 363.463379,123.376709 363.234131,122.425659 C363.004883,121.474609 363.066556,121.013111 363.234131,119.951172 C363.401705,118.889233 363.535808,118.744439 364.171875,117.877526 C364.807942,117.010614 365.189879,116.823788 365.827393,116.416748 C366.464906,116.009708 367.074742,115.802469 367.963379,115.711426 Z M373.035156,123.826904 C373.305892,124.074011 372.062764,124.492213 370.865723,123.826904 C369.668681,123.161596 369.025146,122.146973 369.025146,122.146973 C369.025146,122.146973 372.76442,123.579798 373.035156,123.826904 Z" id="About"></path>
        </g>
    </g>
</svg>