<?xml version="1.0" encoding="UTF-8"?>
<svg width="28px" height="28px" viewBox="0 0 28 28" version="1.1" xmlns="http://www.w3.org/2000/svg" xmlns:xlink="http://www.w3.org/1999/xlink">
    <!-- Generator: Sketch 42 (36781) - http://www.bohemiancoding.com/sketch -->
    <title>all about icon</title>
    <desc>Created with Sketch.</desc>
    <defs></defs>
    <g id="Page-1" stroke="none" stroke-width="1" fill="none" fill-rule="evenodd">
        <g id="About-me---learn-more" transform="translate(-24.000000, -75.000000)" stroke="#F71E1E">
            <g id="all-about-icon" transform="translate(25.000000, 75.000000)">
                <path d="M13.546926,1.17525793 C16.1010449,1.1721637 18.3634331,3.10051742 18.5606403,4.81143217 C18.7578475,6.52234693 16.2115196,8.8905272 13.3523473,8.89399098 C10.493175,8.89745477 8.34291963,6.56134975 8.14267154,4.82405317 C7.94242344,3.08675658 10.992807,1.17835215 13.546926,1.17525793 Z" id="Path-49"></path>
                <path d="M0.586523438,19.5516426 C-2.121875,18.035351 6.88012787,10.6583526 12.538548,10.6859504 C18.1969681,10.7135483 25.5800781,15.5163183 25.5800781,19.0367336 C25.5800781,22.557149 19.1901213,13.0820689 18.4910921,17.1833257 C17.697955,21.8367197 22.5050404,26.204668 20.9725374,27.2528846 C19.4400343,28.3011012 13.5076936,21.0679342 13.5076936,21.0679342 C13.5076936,21.0679342 7.21569961,28.4675695 5.69867527,27.2528846 C4.18165094,26.0381997 8.70876013,21.9240319 7.68882473,17.1833257 C6.76586781,12.89338 3.29492187,21.0679342 0.586523438,19.5516426 Z" id="Path-50"></path>
            </g>
        </g>
    </g>
</svg>