<?xml version="1.0" encoding="UTF-8"?>
<svg width="23px" height="22px" viewBox="0 0 23 22" version="1.1" xmlns="http://www.w3.org/2000/svg" xmlns:xlink="http://www.w3.org/1999/xlink">
    <!-- Generator: Sketch 42 (36781) - http://www.bohemiancoding.com/sketch -->
    <title>Blogspot-red</title>
    <desc>Created with Sketch.</desc>
    <defs>
        <path d="M3.39501953,1.9140625 C6.33007812,-0.431152344 12.949707,0.229003906 15.0859375,0.969726563 C17.579292,1.83427944 16.9487305,5.05957031 18.6445313,8.08496094 C19.2203854,9.11231267 20.6806641,8.59179688 21.6889648,8.59179688 C22.423649,8.59179688 22.2774001,12.8373065 22.2241211,15.1264648 C22.1643666,17.6938472 20.4179688,19.5957031 19.8051758,20.1201172 C19.1923828,20.6445312 18.0288086,21.7402344 11.1432044,21.7402344 C4.25760025,21.7402344 4.41894531,21.7402344 2.42529297,19.5083008 C0.82840808,17.7205563 0.603798902,14.6624327 0.571777344,11.3549805 C0.52246559,6.26165347 0.376056949,4.32631958 3.39501953,1.9140625 Z M6.5,9 L12.5,9 C13.3284271,9 14,8.32842712 14,7.5 C14,6.67157288 13.3284271,6 12.5,6 L6.5,6 C5.67157288,6 5,6.67157288 5,7.5 C5,8.32842712 5.67157288,9 6.5,9 Z M6.5,16 L16.5,16 C17.3284271,16 18,15.3284271 18,14.5 C18,13.6715729 17.3284271,13 16.5,13 L6.5,13 C5.67157288,13 5,13.6715729 5,14.5 C5,15.3284271 5.67157288,16 6.5,16 Z" id="path-1"></path>
    </defs>
    <g id="Page-1" stroke="none" stroke-width="1" fill="none" fill-rule="evenodd">
        <g id="Les-svgs" transform="translate(-485.000000, -502.000000)">
            <g id="Blogspot-red" transform="translate(485.000000, 502.000000)">
                <mask id="mask-2" fill="white">
                    <use xlink:href="#path-1"></use>
                </mask>
                <use id="Combined-Shape" fill="#F71E1E" xlink:href="#path-1"></use>
            </g>
        </g>
    </g>
</svg>