<?xml version="1.0" encoding="UTF-8"?>
<svg width="27px" height="27px" viewBox="0 0 27 27" version="1.1" xmlns="http://www.w3.org/2000/svg" xmlns:xlink="http://www.w3.org/1999/xlink">
    <!-- Generator: Sketch 42 (36781) - http://www.bohemiancoding.com/sketch -->
    <title>Cartable</title>
    <desc>Created with Sketch.</desc>
    <defs></defs>
    <g id="Page-1" stroke="none" stroke-width="1" fill="none" fill-rule="evenodd">
        <g id="Les-svgs" transform="translate(-448.000000, -113.000000)" stroke="#000000" stroke-width="2">
            <g id="Cartable" transform="translate(449.153076, 114.000000)">
                <path d="M8.0300071,3.282547 C8.0300071,3.282547 5.61639113,1.37759423 7.92606238,0.728225708 C10.2357336,0.0788571836 14.9425322,0.101549147 17.2237512,0.69770813 C19.5049701,1.29386711 17.2433564,3.16314697 17.2433564,3.16314697" id="Path-2"></path>
                <path d="M3.75458688,14.4325256 L2.25016276,14.4325256 C2.25016276,14.4325256 1.50627367,14.5801544 0.868918679,13.2843018 C0.231563684,11.9884491 0.619546537,6.6684547 0.665468158,6.06422424 C0.711389779,5.45999379 1.50627367,4.89807129 1.50627367,4.89807129 C11.5917664,4.39091854 22.5916821,4.87912633 23.5603101,4.91294861 C24.5289382,4.94677089 24.3500681,5.69572449 24.3500681,5.69572449 C24.7375159,9.38536478 24.4545001,12.7009115 24.4236802,13.1347656 C24.3928603,13.5686198 24.4210564,14.0227686 23.5603101,14.4325256 C22.6995639,14.8422826 21.3874586,14.5801544 21.3874586,14.5801544" id="Path-3"></path>
                <path d="M4.93238045,13.2953644 C5.74968151,12.2408885 7.28311714,12.172003 8.09733073,13.2953644 C8.91154431,14.4187257 8.13247218,17.710495 8.13247218,17.710495 L4.93238045,17.710495 C4.93238045,17.710495 4.11507938,14.3498403 4.93238045,13.2953644 Z" id="Path-4"></path>
                <path d="M17.1937817,13.3168931 C18.0110828,12.2624172 19.5445184,12.1935318 20.358732,13.3168931 C21.1729456,14.4402545 20.3938735,17.7320238 20.3938735,17.7320238 L17.1937817,17.7320238 C17.1937817,17.7320238 16.3764807,14.3713691 17.1937817,13.3168931 Z" id="Path-4"></path>
                <path d="M9.03431286,14.0012192 L16.0729611,13.9987808" id="Path-6"></path>
                <path d="M0.941421046,15.517807 C0.941421046,15.517807 -0.174967448,22.0924377 0.941421046,23.4668732 C2.05780954,24.8413086 23.4811494,24.5883942 24.2550012,23.4668732 C25.028853,22.3453522 24.2550012,15.4140472 24.2550012,15.4140472" id="Path-7"></path>
            </g>
        </g>
    </g>
</svg>