<?xml version="1.0" encoding="UTF-8"?>
<svg width="51px" height="33px" viewBox="0 0 51 33" version="1.1" xmlns="http://www.w3.org/2000/svg" xmlns:xlink="http://www.w3.org/1999/xlink">
    <!-- Generator: Sketch 42 (36781) - http://www.bohemiancoding.com/sketch -->
    <title>Group</title>
    <desc>Created with Sketch.</desc>
    <defs></defs>
    <g id="Page-1" stroke="none" stroke-width="1" fill="none" fill-rule="evenodd">
        <g id="Group" fill="#000000">
            <path d="M13.7028809,29.4719238 C13.7028809,29.4719238 11.0513663,31.1951651 8.62792969,31.4938965 C6.87649307,31.709792 4.22158101,31.0148917 3.67919922,30.7075195 C1.7232054,29.5990418 1.04541016,28.3188477 0.396972656,26.8293457 C-0.251464844,25.3398438 0.0178222656,21.5222168 0.666015625,19.9880371 C1.31420898,18.4538574 1.96817094,15.9889403 5.11474609,14.6867676 C6.04980469,14.2998047 8.97297845,14.1833575 10.8408203,14.6867676 C12.7193925,15.1930697 14.1657715,16.0356445 14.1657715,16.0356445 L13.7590332,19.0148926 C13.7590332,19.0148926 10.7724609,18.2548828 9.79272461,18.7324219 C8.81298828,19.2099609 8.15966797,20.1459961 8.15966797,22.1933594 C8.15966797,24.2407227 8.2810497,25.1249646 8.62792969,25.9841309 C8.97480967,26.8432972 9.46664445,26.9870414 10.8408203,26.8293457 C12.2149962,26.67165 13.5466309,25.4196777 13.5466309,25.4196777 L13.7028809,29.4719238 Z" id="Path"></path>
            <path d="M14.8400879,32.3327637 C14.1723633,31.5629883 14.4304199,30.7053223 14.4304199,30.7053223 L14.1723633,2.0847168 C14.1723633,2.0847168 14.3391113,1.25244141 14.7185059,1.01538086 C15.0979004,0.778320313 15.9387207,0.778320313 15.9387207,0.778320313 C15.9387207,0.778320313 37.4309082,0.8203125 38.9069824,0.799316406 C39.7681111,0.78706747 41.9967149,1.26340475 44.0224609,2.0847168 C45.4690779,2.67122858 46.7647464,3.46329165 47.6020508,4.24365234 C49.6118604,6.11677819 49.8493652,8.28076172 49.8493652,8.28076172 C49.8493652,8.28076172 50.4519087,10.3378597 50.40625,12.3913574 C50.3605913,14.4448552 49.6450195,17.4711914 49.6450195,17.4711914 C49.6450195,17.4711914 48.7524414,20.3901367 47.0449219,22.0493164 C45.3374023,23.7084961 43.0180664,24.4973145 41.1357422,24.9360352 C39.253418,25.3747559 34.0410156,25.3747559 34.0410156,25.3747559 L30.3112793,25.3747559 L30.3137207,26.0124512 L30.3139648,31.2050781 C30.3139648,31.2050781 30.2097972,31.7276792 29.8879395,32.0996094 C29.5660817,32.4715395 29.0742187,32.6376953 29.0742187,32.6376953 L15.6166992,32.8354492 C15.6166992,32.8354492 15.5078125,33.1025391 14.8400879,32.3327637 Z M30.6904297,19.4294434 C30.6904297,19.4294434 32.0756457,20.6521374 33.2285156,19.6015625 C34.1337512,18.7766491 34.5142382,18.3162862 34.9094238,15.6674805 C35.3546923,12.6829855 35.3789249,10.9086532 34.9094238,8.33496094 C34.4218936,5.66243738 34.5322266,5.93408203 32.8925781,5.18603516 C31.4685059,5.93408203 31.3596191,7.68066406 31.3596191,7.68066406 C31.3596191,7.68066406 31.1967921,9.28048939 30.9428711,12.2058105 C30.68895,15.1311317 30.6904297,19.4294434 30.6904297,19.4294434 Z" id="Path-2"></path>
        </g>
    </g>
</svg>