<?xml version="1.0" encoding="UTF-8"?>
<svg width="54px" height="31px" viewBox="0 0 54 31" version="1.1" xmlns="http://www.w3.org/2000/svg" xmlns:xlink="http://www.w3.org/1999/xlink">
    <!-- Generator: Sketch 42 (36781) - http://www.bohemiancoding.com/sketch -->
    <title>Bonhomme</title>
    <desc>Created with Sketch.</desc>
    <defs></defs>
    <g id="Page-1" stroke="none" stroke-width="1" fill="none" fill-rule="evenodd">
        <g id="About-me---learn-more" transform="translate(-24.000000, -729.000000)" stroke="#F71E1E">
            <g id="Bonhomme" transform="translate(25.000000, 729.000000)">
                <g id="experience-icon">
                    <path d="M12.9601393,1.14473175 C15.4036263,1.14171789 17.5680189,3.0199845 17.756684,4.68645991 C17.9453492,6.35293532 15.5093157,8.65960441 12.7739888,8.66297823 C10.0386619,8.66635205 7.98154511,6.39092508 7.78997078,4.69875308 C7.59839645,3.00658108 10.5166523,1.1477456 12.9601393,1.14473175 Z" id="Path-49"></path>
                    <path d="M0.561118108,19.0438077 C-2.02996574,17.5669003 6.58211434,10.3815123 11.9954393,10.4083933 C17.4087643,10.4352743 24.4720741,15.113297 24.4720741,18.542273 C24.4720741,21.9712491 18.358899,12.7422749 17.6901483,16.7370056 C16.9313661,21.2695322 21.530232,25.5240273 20.0641095,26.5450175 C18.597987,27.5660077 12.9226063,20.5207152 12.9226063,20.5207152 C12.9226063,20.5207152 6.90315075,27.7281521 5.4518365,26.5450175 C4.00052225,25.3618829 8.33153919,21.3545765 7.3557824,16.7370056 C6.47280347,12.558487 3.15220196,20.5207152 0.561118108,19.0438077 Z" id="Path-50"></path>
                    <path d="M35.4028764,29.7842685 C35.4028764,29.7842685 33.3110795,29.8071733 32.6526989,28.0424361 C31.9943182,26.2776989 32.035981,18.4162498 33.2839134,17.6649503 C34.5318457,16.9136508 35.5690696,16.4275568 35.5690696,16.4275568 L35.4028764,29.7842685 Z" id="Path-51"></path>
                    <path d="M51.7175172,29.6112504 C51.7175172,29.6112504 49.6257203,29.6341553 48.9673396,27.8694181 C48.3089589,26.1046808 48.3506218,18.2432318 49.5985541,17.4919323 C50.8464865,16.7406328 51.8837104,16.2545388 51.8837104,16.2545388 L51.7175172,29.6112504 Z" id="Path-51" transform="translate(50.214581, 22.932902) scale(-1, 1) translate(-50.214581, -22.932902) "></path>
                    <polygon id="Path-52" points="37.057101 15.8181818 36.9388482 29.8508523 47.1197786 29.8407315 47.1661209 16.0275213"></polygon>
                    <path d="M38.7475142,15.7947443 C38.7475142,15.7947443 36.9762421,14.6119446 38.7475142,14.2041903 C40.5187863,13.796436 43.707771,13.8180935 45.3467685,14.2755682 C46.985766,14.7330428 45.3467685,16.0461648 45.3467685,16.0461648" id="Path-53"></path>
                </g>
            </g>
        </g>
    </g>
</svg>