<?xml version="1.0" encoding="UTF-8"?>
<svg width="24px" height="23px" viewBox="0 0 24 23" version="1.1" xmlns="http://www.w3.org/2000/svg" xmlns:xlink="http://www.w3.org/1999/xlink">
    <!-- Generator: Sketch 42 (36781) - http://www.bohemiancoding.com/sketch -->
    <title>FoutainPen</title>
    <desc>Created with Sketch.</desc>
    <defs></defs>
    <g id="Page-1" stroke="none" stroke-width="1" fill="none" fill-rule="evenodd">
        <g id="FoutainPen" fill-rule="nonzero" fill="#F71E1E">
            <g id="Page-1">
                <g id="Les-svgs">
                    <g id="FoutainPen">
                        <path d="M4.18823242,10.6940918 C4.18823242,10.6940918 3.47104869,9.19757568 2.47265625,7.43469238 C1.47426381,5.67180908 0.539585247,4.30391152 0.385620117,3.97973633 C0.231654987,3.65556114 1.39756244,2.1587479 2.49804687,1.58776855 C3.59853131,1.01678921 4.88061523,0.935668945 4.88061523,0.935668945 C4.88061523,0.935668945 5.63666207,0.618260644 6.24023437,2.07263184 C6.84380668,3.52700303 7.23291016,5.1307373 7.23291016,5.1307373 C7.23291016,5.1307373 7.39819159,6.16439191 7.75073242,7.03430176 C8.10327325,7.9042116 8.66210937,8.65734863 8.66210937,8.65734863 C8.66210937,8.65734863 7.55461958,8.69292218 6.93237305,8.81616211 C6.31012652,8.93940204 6.05413925,9.10072274 5.24328613,9.65087891 C4.43243301,10.2010351 4.18823242,10.6940918 4.18823242,10.6940918 Z" id="Path-20"></path>
                        <path d="M4.35314941,11.1494141 C4.35314941,11.1494141 5.14347297,10.214764 5.69909668,9.81494141 C6.25472039,9.41511879 6.17595815,9.43024596 7.02478027,9.22692871 C7.87360239,9.02361146 8.81750488,9.06799316 8.81750488,9.06799316 L9.90356445,10.5803223 C9.90356445,10.5803223 9.82508108,10.7631587 9.86279297,11.0578613 C9.90050486,11.3525639 10.0661261,11.3862486 10.0391846,11.6401367 C10.012243,11.8940249 9.74926758,12.1276855 9.74926758,12.1276855 C9.74926758,12.1276855 9.5335607,11.7876036 8.99121094,11.7119141 C8.44886117,11.6362245 8.3137422,11.7265258 7.82495117,11.8591309 C7.33616014,11.9917359 7.30376528,12.0043167 6.91149902,12.276123 C6.51923276,12.5479293 6.41031903,12.6087541 6.25756836,12.9451904 C6.10481769,13.2816268 6.2623291,13.7059326 6.2623291,13.7059326 C6.2623291,13.7059326 5.88899026,13.7172782 5.65197754,13.5430908 C5.41496482,13.3689034 5.52729896,13.1777495 5.34912109,13.03479 C5.17094323,12.8918306 4.83862305,12.8905029 4.83862305,12.8905029 L4.58203125,11.9733887 L4.35314941,11.1494141 Z" id="Path-21"></path>
                        <path d="M7.87878418,12.0914307 C8.32042259,11.9870291 8.33792673,11.9194736 8.72717285,11.9217529 C9.11641897,11.9240322 9.55187988,12.0914307 9.55187988,12.0914307 L11.2366943,15.34375 L12.8067627,17.8979492 C12.8067627,17.8979492 12.7039713,18.8177186 12.685791,19.3861084 C12.6676108,19.9544982 12.6397176,19.7412229 12.7226563,20.5274658 C12.8055949,21.3137088 12.9699707,22.0800781 12.9699707,22.0800781 L12.7762451,22.0800781 L10.7545166,17.4997559 C10.7545166,17.4997559 10.8986682,17.1996384 10.831665,16.927124 C10.7646619,16.6546096 10.7096605,16.6015704 10.5056152,16.4874268 C10.30157,16.3732831 10.1539485,16.4233424 10.0456543,16.4874268 C9.93736006,16.5515112 9.90438616,16.6093778 9.90698242,16.8416748 C9.90957868,17.0739718 9.90526602,17.1097422 10.0549316,17.3175049 C10.2045973,17.5252675 10.4418945,17.5842285 10.4418945,17.5842285 L12.5303955,22.383667 L12.3037109,22.3308105 C12.3037109,22.3308105 11.6990652,21.3486528 10.6174316,20.546875 C9.53579804,19.7450972 8.32409668,19.3808594 8.32409668,19.3808594 L6.45874023,13.4976807 C6.45874023,13.4976807 6.38352123,13.0626297 6.63476563,12.7391357 C6.88601002,12.4156418 7.25708008,12.3085938 7.25708008,12.3085938 C7.25708008,12.3085938 7.43714577,12.1958322 7.87878418,12.0914307 Z" id="Path-22"></path>
                        <path d="M12.6365967,22.0631104 L14.3614502,22.2264404 L16.1159668,22.3847656 L17.6811523,22.3964844 L18.8199463,22.2923584 C18.8199463,22.2923584 19.8660796,22.2078145 19.881958,22.0181885 C19.8978364,21.8285625 18.8792725,21.5838623 18.8792725,21.5838623 L17.5581055,21.3327637 L16.2576904,20.9293213 C16.2576904,20.9293213 15.4992358,20.5641674 15.3405762,20.4111328 C15.1819166,20.2580982 15.0489026,20.359654 15.3555908,20.0592041 C15.6622791,19.7587543 16.270752,19.4998779 16.270752,19.4998779 L17.3833008,19.0668945 L19.064209,18.5292969 C19.064209,18.5292969 20.0045642,18.4211267 21.145752,18.692627 C22.2869398,18.9641272 23.1181641,19.4937744 23.1181641,19.4937744 L22.8658447,19.5758057 C22.8658447,19.5758057 22.1787029,19.3809536 21.5899658,19.2416992 C21.0012287,19.1024449 20.6497803,19.0131836 20.3803711,18.987915 C20.1109619,18.9626465 19.916638,18.8172625 19.2491455,18.9626465 C18.5816531,19.1080305 18.1586301,19.3722634 17.6811523,19.5758057 C17.2036746,19.779348 16.3009421,20.0538579 16.5031738,20.2403564 C16.7054056,20.426855 17.4035645,20.574585 17.4035645,20.574585 L18.4884033,20.8009033 C18.4884033,20.8009033 19.027273,20.8825771 19.520752,21.0618896 C20.0142309,21.2412022 20.0933582,21.2728405 20.4449463,21.5118408 C20.7965343,21.7508412 20.9373423,21.7981265 21.0357666,22.0197754 C21.1341909,22.2414243 21.0800794,22.348702 20.8780518,22.4871826 C20.6760241,22.6256633 20.1109619,22.6536865 20.1109619,22.6536865 L18.8736572,22.8902588 L17.4746094,22.9887695 C17.4746094,22.9887695 16.3501699,22.929565 15.8387451,22.9060059 C15.3273204,22.8824468 15.4702157,22.9123663 14.8140869,22.8662109 C14.1579581,22.8200556 13.5134277,22.7424316 13.5134277,22.7424316 C13.5134277,22.7424316 13.2071142,22.6865244 12.9580078,22.4935303 C12.7089015,22.3005361 12.6365967,22.0631104 12.6365967,22.0631104 Z" id="Path-23"></path>
                    </g>
                </g>
            </g>
        </g>
    </g>
</svg>