<?xml version="1.0" encoding="UTF-8"?>
<svg width="26px" height="26px" viewBox="0 0 26 26" version="1.1" xmlns="http://www.w3.org/2000/svg" xmlns:xlink="http://www.w3.org/1999/xlink">
    <!-- Generator: Sketch 42 (36781) - http://www.bohemiancoding.com/sketch -->
    <title>Github</title>
    <desc>Created with Sketch.</desc>
    <defs></defs>
    <g id="Page-1" stroke="none" stroke-width="1" fill="none" fill-rule="evenodd">
        <g id="Les-svgs" transform="translate(-436.000000, -471.000000)" fill-rule="nonzero" fill="#000000">
            <path d="M449,473.524272 C451.798155,473.524272 454.428825,474.613937 456.407476,476.592524 C458.386063,478.571175 459.475728,481.201845 459.475728,484 C459.475728,486.798155 458.386063,489.428825 456.407476,491.407476 C454.428825,493.386 451.798155,494.475728 449,494.475728 C446.201845,494.475728 443.571175,493.386 441.592524,491.407476 C439.613937,489.428825 438.524272,486.798155 438.524272,484 C438.524272,481.201845 439.613937,478.571175 441.592524,476.592524 C443.571175,474.613937 446.201845,473.524272 449,473.524272 L449,473.524272 Z M449,471 C441.820277,471 436,476.820277 436,484 C436,491.179723 441.820277,497 449,497 C456.179723,497 462,491.179723 462,484 C462,476.820277 456.179723,471 449,471 L449,471 Z M457.535194,484.664515 L457.550214,484.508262 C456.613961,484.417451 455.682694,484.409374 454.778121,484.478413 C454.923519,484.014325 455.000131,483.490223 454.994578,482.89418 C454.982714,481.627942 454.560466,480.641772 453.896898,479.823277 C454.024374,479.052364 453.928325,478.281515 453.687888,477.51035 C452.739772,477.587971 451.886379,477.898519 451.126573,478.438019 C449.706544,478.15 448.286704,478.131636 446.866675,478.438019 C445.980403,477.83983 445.110097,477.54651 444.253233,477.51035 C443.999228,478.359515 443.960039,479.1965 444.174854,480.019476 C443.427291,480.812728 443.141607,481.775612 443.155617,482.841864 C443.163631,483.452233 443.25766,483.995393 443.431204,484.475573 C442.53982,484.410194 441.623636,484.419029 440.702214,484.508262 L440.717296,484.664515 C441.655631,484.573451 442.588539,484.565879 443.494752,484.636811 C443.52801,484.717461 443.561519,484.797859 443.599699,484.87466 C442.61782,484.848786 441.734199,484.934044 440.90668,485.137563 L440.944039,485.289777 C441.78399,485.083354 442.683641,485.000243 443.688238,485.034005 C444.352563,486.214291 445.631549,486.907835 447.493956,487.128015 C447.061296,487.479393 446.828621,487.893942 446.768733,488.363015 L445.782374,488.363015 C444.457636,488.363015 444.096476,486.673898 442.724408,486.840563 C444.055519,487.500723 443.78965,489.610699 445.919694,489.610699 L446.814612,489.610699 L446.814612,491.544796 C446.824078,491.857301 446.688019,492.066374 446.468282,492.211204 C447.231117,492.288257 447.804379,491.907408 447.804379,491.440228 L447.804379,488.883646 C447.804379,488.65583 448.042859,488.638223 448.042859,488.638223 L448.042859,491.623175 C448.052956,491.920218 447.908568,492.089092 447.755345,492.250393 C448.427369,492.277214 449.05951,492.142985 449.08816,491.570985 L449.08816,488.714204 C449.08816,488.570573 449.323485,488.567039 449.323485,488.714204 L449.323485,491.436947 C449.330427,491.919461 449.747184,492.31066 450.630112,492.250393 C450.393903,492.060252 450.321393,491.868029 450.321393,491.589917 L450.321393,488.638223 C450.321393,488.638223 450.564733,488.625854 450.564733,488.883646 L450.564733,491.373272 C450.564733,491.927286 451.229879,492.155922 451.98899,492.134466 C451.74035,491.948175 451.571981,491.725913 451.570908,491.428806 L451.570908,488.43483 C451.545223,487.994723 451.366316,487.579859 451.015442,487.19333 C452.717937,486.931942 453.944985,486.252408 454.555985,485.034383 C455.563864,484.999738 456.466291,485.082723 457.308388,485.289777 L457.345748,485.137563 C456.511791,484.932592 455.62085,484.847335 454.62982,484.875228 C454.664087,484.797859 454.698102,484.720238 454.727447,484.638641 C455.643126,484.565121 456.586447,484.572316 457.535194,484.664515 Z M443.319379,487.092675 C443.277539,487.092675 443.243587,487.068568 443.243587,487.038971 C443.243587,487.009248 443.277539,486.985141 443.319379,486.985141 C443.361282,486.985141 443.39517,487.009248 443.39517,487.038971 C443.395233,487.068568 443.361282,487.092675 443.319379,487.092675 Z M443.557985,487.255427 C443.511476,487.255427 443.473675,487.22867 443.473675,487.195728 C443.473675,487.162786 443.511476,487.135966 443.557985,487.135966 C443.604369,487.135966 443.64217,487.162786 443.64217,487.195728 C443.64217,487.22867 443.604369,487.255427 443.557985,487.255427 Z M443.799937,487.466835 C443.74535,487.466835 443.701175,487.435534 443.701175,487.39685 C443.701175,487.358165 443.74535,487.326801 443.799937,487.326801 C443.854461,487.326801 443.898699,487.358165 443.898699,487.39685 C443.898699,487.435534 443.854461,487.466835 443.799937,487.466835 Z M444.035073,487.72065 C443.971272,487.72065 443.919524,487.683922 443.919524,487.638612 C443.919524,487.59349 443.971272,487.556762 444.035073,487.556762 C444.098811,487.556762 444.150495,487.59349 444.150495,487.638612 C444.150495,487.683922 444.098811,487.72065 444.035073,487.72065 Z M444.294063,488.007534 C444.223194,488.007534 444.165704,487.966767 444.165704,487.916471 C444.165704,487.866175 444.223194,487.825408 444.294063,487.825408 C444.364932,487.825408 444.422422,487.866175 444.422422,487.916471 C444.422422,487.966767 444.364932,488.007534 444.294063,488.007534 Z M444.593947,488.298646 C444.515189,488.298646 444.451262,488.253461 444.451262,488.197549 C444.451262,488.141699 444.515189,488.096325 444.593947,488.096325 C444.672641,488.096325 444.736568,488.141699 444.736568,488.197549 C444.736505,488.253461 444.672641,488.298646 444.593947,488.298646 Z M444.999471,488.575811 C444.911879,488.575811 444.840947,488.525451 444.840947,488.463354 C444.840947,488.401257 444.911879,488.350835 444.999471,488.350835 C445.086937,488.350835 445.157869,488.401257 445.157869,488.463354 C445.157869,488.525451 445.086937,488.575811 444.999471,488.575811 Z M445.502053,488.723985 C445.414587,488.723985 445.343592,488.673563 445.343592,488.611592 C445.343592,488.549495 445.414587,488.499073 445.502053,488.499073 C445.589646,488.499073 445.660515,488.549495 445.660515,488.611592 C445.660515,488.673626 445.589646,488.723985 445.502053,488.723985 Z M446.032024,488.741087 C445.944432,488.741087 445.873563,488.690728 445.873563,488.628757 C445.873563,488.56666 445.944432,488.516238 446.032024,488.516238 C446.11949,488.516238 446.190485,488.56666 446.190485,488.628757 C446.190422,488.690728 446.119427,488.741087 446.032024,488.741087 Z M446.555053,488.751248 C446.467587,488.751248 446.396592,488.700951 446.396592,488.638854 C446.396592,488.57682 446.467587,488.526335 446.555053,488.526335 C446.642646,488.526335 446.713578,488.57682 446.713578,488.638854 C446.713578,488.700951 446.642646,488.751248 446.555053,488.751248 Z" id="Github"></path>
        </g>
    </g>
</svg>