<?xml version="1.0" encoding="UTF-8"?>
<svg width="27px" height="26px" viewBox="0 0 27 26" version="1.1" xmlns="http://www.w3.org/2000/svg" xmlns:xlink="http://www.w3.org/1999/xlink">
    <!-- Generator: Sketch 42 (36781) - http://www.bohemiancoding.com/sketch -->
    <title>Github Copy</title>
    <desc>Created with Sketch.</desc>
    <defs></defs>
    <g id="Page-1" stroke="none" stroke-width="1" fill="none" fill-rule="evenodd">
        <g id="iPhone-7-version-deux!" transform="translate(-224.000000, -474.000000)" fill-rule="nonzero" fill="#F71E1E">
            <path d="M237.528076,476.524272 C240.326232,476.524272 242.956901,477.613937 244.935552,479.592524 C246.914139,481.571175 248.003804,484.201845 248.003804,487 C248.003804,489.798155 246.914139,492.428825 244.935552,494.407476 C242.956901,496.386 240.326232,497.475728 237.528076,497.475728 C234.729921,497.475728 232.099251,496.386 230.1206,494.407476 C228.142013,492.428825 227.052348,489.798155 227.052348,487 C227.052348,484.201845 228.142013,481.571175 230.1206,479.592524 C232.099251,477.613937 234.729921,476.524272 237.528076,476.524272 L237.528076,476.524272 Z M237.528076,474 C230.348353,474 224.528076,479.820277 224.528076,487 C224.528076,494.179723 230.348353,500 237.528076,500 C244.707799,500 250.528076,494.179723 250.528076,487 C250.528076,479.820277 244.707799,474 237.528076,474 L237.528076,474 Z M246.06327,487.664515 L246.07829,487.508262 C245.142037,487.417451 244.21077,487.409374 243.306198,487.478413 C243.451596,487.014325 243.528207,486.490223 243.522654,485.89418 C243.51079,484.627942 243.088542,483.641772 242.424974,482.823277 C242.55245,482.052364 242.456401,481.281515 242.215965,480.51035 C241.267848,480.587971 240.414455,480.898519 239.654649,481.438019 C238.23462,481.15 236.81478,481.131636 235.394751,481.438019 C234.508479,480.83983 233.638173,480.54651 232.781309,480.51035 C232.527304,481.359515 232.488115,482.1965 232.702931,483.019476 C231.955367,483.812728 231.669683,484.775612 231.683693,485.841864 C231.691707,486.452233 231.785736,486.995393 231.95928,487.475573 C231.067897,487.410194 230.151712,487.419029 229.23029,487.508262 L229.245372,487.664515 C230.183707,487.573451 231.116615,487.565879 232.022829,487.636811 C232.056086,487.717461 232.089596,487.797859 232.127775,487.87466 C231.145897,487.848786 230.262275,487.934044 229.434756,488.137563 L229.472115,488.289777 C230.312066,488.083354 231.211717,488.000243 232.216314,488.034005 C232.880639,489.214291 234.159625,489.907835 236.022032,490.128015 C235.589372,490.479393 235.356698,490.893942 235.296809,491.363015 L234.31045,491.363015 C232.985712,491.363015 232.624552,489.673898 231.252484,489.840563 C232.583596,490.500723 232.317727,492.610699 234.44777,492.610699 L235.342688,492.610699 L235.342688,494.544796 C235.352154,494.857301 235.216096,495.066374 234.996358,495.211204 C235.759193,495.288257 236.332455,494.907408 236.332455,494.440228 L236.332455,491.883646 C236.332455,491.65583 236.570935,491.638223 236.570935,491.638223 L236.570935,494.623175 C236.581032,494.920218 236.436644,495.089092 236.283421,495.250393 C236.955445,495.277214 237.587586,495.142985 237.616236,494.570985 L237.616236,491.714204 C237.616236,491.570573 237.851562,491.567039 237.851562,491.714204 L237.851562,494.436947 C237.858503,494.919461 238.275261,495.31066 239.158188,495.250393 C238.921979,495.060252 238.849469,494.868029 238.849469,494.589917 L238.849469,491.638223 C238.849469,491.638223 239.092809,491.625854 239.092809,491.883646 L239.092809,494.373272 C239.092809,494.927286 239.757955,495.155922 240.517066,495.134466 C240.268426,494.948175 240.100057,494.725913 240.098984,494.428806 L240.098984,491.43483 C240.073299,490.994723 239.894392,490.579859 239.543518,490.19333 C241.246013,489.931942 242.473062,489.252408 243.084062,488.034383 C244.09194,487.999738 244.994367,488.082723 245.836465,488.289777 L245.873824,488.137563 C245.039867,487.932592 244.148926,487.847335 243.157897,487.875228 C243.192164,487.797859 243.226178,487.720238 243.255523,487.638641 C244.171202,487.565121 245.114523,487.572316 246.06327,487.664515 Z M231.847455,490.092675 C231.805615,490.092675 231.771664,490.068568 231.771664,490.038971 C231.771664,490.009248 231.805615,489.985141 231.847455,489.985141 C231.889358,489.985141 231.923246,490.009248 231.923246,490.038971 C231.923309,490.068568 231.889358,490.092675 231.847455,490.092675 Z M232.086062,490.255427 C232.039552,490.255427 232.001751,490.22867 232.001751,490.195728 C232.001751,490.162786 232.039552,490.135966 232.086062,490.135966 C232.132445,490.135966 232.170246,490.162786 232.170246,490.195728 C232.170246,490.22867 232.132445,490.255427 232.086062,490.255427 Z M232.328013,490.466835 C232.273426,490.466835 232.229251,490.435534 232.229251,490.39685 C232.229251,490.358165 232.273426,490.326801 232.328013,490.326801 C232.382537,490.326801 232.426775,490.358165 232.426775,490.39685 C232.426775,490.435534 232.382537,490.466835 232.328013,490.466835 Z M232.563149,490.72065 C232.499348,490.72065 232.4476,490.683922 232.4476,490.638612 C232.4476,490.59349 232.499348,490.556762 232.563149,490.556762 C232.626887,490.556762 232.678571,490.59349 232.678571,490.638612 C232.678571,490.683922 232.626887,490.72065 232.563149,490.72065 Z M232.822139,491.007534 C232.75127,491.007534 232.69378,490.966767 232.69378,490.916471 C232.69378,490.866175 232.75127,490.825408 232.822139,490.825408 C232.893008,490.825408 232.950499,490.866175 232.950499,490.916471 C232.950499,490.966767 232.893008,491.007534 232.822139,491.007534 Z M233.122023,491.298646 C233.043265,491.298646 232.979338,491.253461 232.979338,491.197549 C232.979338,491.141699 233.043265,491.096325 233.122023,491.096325 C233.200717,491.096325 233.264644,491.141699 233.264644,491.197549 C233.264581,491.253461 233.200717,491.298646 233.122023,491.298646 Z M233.527547,491.575811 C233.439955,491.575811 233.369023,491.525451 233.369023,491.463354 C233.369023,491.401257 233.439955,491.350835 233.527547,491.350835 C233.615013,491.350835 233.685945,491.401257 233.685945,491.463354 C233.685945,491.525451 233.615013,491.575811 233.527547,491.575811 Z M234.03013,491.723985 C233.942664,491.723985 233.871668,491.673563 233.871668,491.611592 C233.871668,491.549495 233.942664,491.499073 234.03013,491.499073 C234.117722,491.499073 234.188591,491.549495 234.188591,491.611592 C234.188591,491.673626 234.117722,491.723985 234.03013,491.723985 Z M234.5601,491.741087 C234.472508,491.741087 234.401639,491.690728 234.401639,491.628757 C234.401639,491.56666 234.472508,491.516238 234.5601,491.516238 C234.647566,491.516238 234.718562,491.56666 234.718562,491.628757 C234.718499,491.690728 234.647503,491.741087 234.5601,491.741087 Z M235.08313,491.751248 C234.995664,491.751248 234.924668,491.700951 234.924668,491.638854 C234.924668,491.57682 234.995664,491.526335 235.08313,491.526335 C235.170722,491.526335 235.241654,491.57682 235.241654,491.638854 C235.241654,491.700951 235.170722,491.751248 235.08313,491.751248 Z" id="Github-Copy"></path>
        </g>
    </g>
</svg>