<?xml version="1.0" encoding="UTF-8"?>
<svg width="27px" height="27px" viewBox="0 0 27 27" version="1.1" xmlns="http://www.w3.org/2000/svg" xmlns:xlink="http://www.w3.org/1999/xlink">
    <!-- Generator: Sketch 42 (36781) - http://www.bohemiancoding.com/sketch -->
    <title>instagram-svg</title>
    <desc>Created with Sketch.</desc>
    <defs></defs>
    <g id="Page-1" stroke="none" stroke-width="1" fill="none" fill-rule="evenodd">
        <g id="Les-svgs" transform="translate(-303.000000, -507.000000)" stroke="#F71E1E" stroke-width="1.5">
            <g id="instagram-svg" transform="translate(304.000000, 506.982910)">
                <path d="M2.33789062,24.0605469 C-0.239642299,21.5130197 0.545132363,17.2833236 0.383789063,13.5046976 C0.208690966,9.40393717 -0.696471461,5.74413346 2.00976562,2.9375 C4.6175596,0.232961708 8.58584551,1.24629042 12.5453434,1.18164063 C16.4810009,1.11738009 20.4077525,-0.0409260076 23.0546875,2.57519531 C26.2108813,5.69464697 25.0224609,7.2421875 25.0224609,13.5046976 C25.0224609,16.5890389 25.9628906,21.875 23.0546875,24.0605469 C20.4903351,26.7903841 16.0157109,25.7105566 12.5453434,25.9101563 C8.33593271,26.1522623 5.2839082,26.972269 2.33789062,24.0605469 Z" id="Path-54"></path>
                <circle id="Oval-2" cx="13" cy="14" r="6"></circle>
                <circle id="Oval-3" fill="#D8D8D8" cx="19.5" cy="6.5" r="0.5"></circle>
            </g>
        </g>
    </g>
</svg>