<?xml version="1.0" encoding="UTF-8"?>
<svg width="142px" height="170px" viewBox="0 0 142 170" version="1.1" xmlns="http://www.w3.org/2000/svg" xmlns:xlink="http://www.w3.org/1999/xlink">
    <!-- Generator: Sketch 42 (36781) - http://www.bohemiancoding.com/sketch -->
    <title>Node</title>
    <desc>Created with Sketch.</desc>
    <defs></defs>
    <g id="Page-1" stroke="none" stroke-width="1" fill="none" fill-rule="evenodd">
        <g id="Les-svgs" transform="translate(-287.000000, -150.000000)" fill="#000000">
            <g id="Node" transform="translate(287.320801, 150.000000)">
                <path d="M52.089681,53.9717407 C52.089681,53.9717407 44.2666303,51.6278861 41.774864,54.0984759 C39.2830978,56.5690656 44.6171205,126.807173 39.6404335,130.984959 C34.6637466,135.162746 36.1300551,133.45704 32.9893344,133.45704 C29.8486137,133.45704 11.242513,121.060852 11.242513,121.060852 L10.9508942,48.7159598 L71.3200923,11.0055455 L130.795267,48.028608 L131.471603,120.559875 L71.4679553,157.621704 L53.5792643,147.500785 L42.644244,152.793841 C42.644244,152.793841 62.5337489,169.081543 70.5881779,169.081543 C78.6426069,169.081543 139.782054,127.530308 139.936763,126.807173 C140.091471,126.084037 142.375134,46.4183262 139.782054,42.8011562 C137.188974,39.1839861 75.745031,0.127197266 71.4433115,0.127197266 C67.141592,0.127197266 2.31322763,39.990618 0.822275199,44.8229545 C-0.668677237,49.6552909 0.603218827,125.681466 2.31322763,127.530308 C4.02323644,129.37915 16.205509,137.531948 16.205509,137.531948 C16.205509,137.531948 29.0165294,144.295502 33.505486,145.241917 C37.9944425,146.188332 42.7537722,143.129168 42.7537722,143.129168 C42.7537722,143.129168 47.3331449,141.479948 49.8183402,137.531948 C52.3035355,133.583947 52.5729741,127.530308 52.5729741,127.530308 C52.5729741,127.530308 52.089681,53.9717407 52.089681,53.9717407 Z" id="Path-26"></path>
                <path d="M68.399797,95.7421526 C70.7622587,97.1313236 68.1930626,101.382612 76.0503408,105.461993 C83.9076191,109.541373 94.529115,109.11942 94.529115,109.11942 C94.529115,109.11942 101.718271,110.025949 104.598863,105.461993 C107.479454,100.898036 107.282303,100.446263 104.598863,95.7421526 C101.915422,91.0380423 86.7088025,90.2686855 86.7088025,90.2686855 C86.7088025,90.2686855 76.2674794,89.2792071 71.4337278,87.6221575 C66.5999762,85.9651079 65.5181546,86.1560232 62.4784295,81.9623152 C59.4387043,77.7686071 59.2993739,70.8811907 59.2993739,70.8811907 C59.2993739,70.8811907 60.612343,62.3526611 63.1917318,59.3497838 C65.7711206,56.3469064 76.1580369,51.600527 82.4714308,51.3878348 C88.7848246,51.1751427 106.08297,52.9876796 110.468204,58.0794503 C114.853439,63.1712211 115.428462,74.2269985 115.428462,74.2269985 L104.598863,74.5535278 C104.598863,74.5535278 103.357426,67.9067204 100.550427,65.0051531 C97.7434281,62.1035858 86.7366609,62.2522234 82.4714308,62.7358486 C78.2062007,63.2194737 71.8321366,65.0051531 71.8321366,70.8170776 C71.8321366,76.6290022 78.371056,76.919047 85.7340016,78.4972273 C93.0969472,80.0754075 93.9619406,79.3187495 100.550427,81.1213902 C107.138913,82.9240309 109.822505,82.9679434 113.43368,86.0759888 C117.044854,89.1840341 117.813438,93.9827706 117.813438,95.9792219 C117.813438,97.9756731 118.203654,103.713255 115.119045,109.11942 C112.034436,114.525584 101.324588,119.015622 94.529115,119.562395 C87.7336415,120.109169 86.456843,120.285501 80.8531518,119.452061 C75.2494607,118.618622 64.3702984,114.243752 61.2654048,108.791399 C58.1605112,103.339047 57.1800034,96.9021519 58.2396886,95.4424613 C59.2993739,93.9827706 66.0373353,94.3529817 68.399797,95.7421526 Z" id="Path-27"></path>
            </g>
        </g>
    </g>
</svg>