<?xml version="1.0" encoding="UTF-8"?>
<svg width="108px" height="108px" viewBox="0 0 108 108" version="1.1" xmlns="http://www.w3.org/2000/svg" xmlns:xlink="http://www.w3.org/1999/xlink">
    <!-- Generator: Sketch 42 (36781) - http://www.bohemiancoding.com/sketch -->
    <title>Rails</title>
    <desc>Created with Sketch.</desc>
    <defs></defs>
    <g id="Page-1" stroke="none" stroke-width="1" fill="none" fill-rule="evenodd">
        <g id="Les-svgs" transform="translate(-87.000000, -231.000000)">
            <g id="Rails" transform="translate(87.000000, 231.000000)">
                <path d="M11.9121094,106.708008 L64.2880859,107.015625 L56.7060547,81.8349609 C56.7060547,81.8349609 54.0791016,70.015625 55.2080078,60.3857422 C56.3369141,50.7558594 58.40625,38.6113281 67.6503906,30.0146484 C76.8945312,21.4179688 83.3684633,19.0585718 90.7607422,19.3125 C98.153021,19.5664282 105.503906,24.1435547 105.503906,24.1435547 L107.6875,20.9648438 C107.6875,20.9648438 98.1345078,13.3051039 90.7607422,10.6376953 C83.3869766,7.9702867 79.8379214,6.00339443 70.6435547,7.56445313 C61.449188,9.12551182 59.834614,9.98627821 52.7001953,13.7910156 C45.5657767,17.595753 38.5966797,24.1435547 28.796875,42.0917969 C18.9970703,60.0400391 17.3554688,68.6289062 14.6943359,77.8496094 C12.0332031,87.0703125 11.9121094,106.708008 11.9121094,106.708008 Z" id="Path-28" fill="#000000"></path>
                <polygon id="Path-29" fill="#000000" points="0.453125 89.9921875 1.35058594 80.1484375 11.5722656 81.2099609 9.62109375 91.1494141"></polygon>
                <polygon id="Path-30" fill="#000000" points="8.35742188 55.3603516 17.5205078 58.7519531 20.1640625 50.8759766 11.0693359 47.1826172"></polygon>
                <polygon id="Path-31" fill="#010101" points="23.5605469 27.1777344 30.40625 31.8818359 35.8974609 25.9248047 28.7460938 21.2441406"></polygon>
                <polygon id="Path-32" fill="#000000" points="44.6357422 7.62597656 48.953125 12.625 55.8457031 9.06933594 51.0498047 3.80078125"></polygon>
                <polygon id="Path-33" fill="#000000" points="67.6113281 0.795898438 68.2373047 5.34472656 76.2705078 5.72558594 76.0263672 0.28125"></polygon>
                <polygon id="Path-34" fill="#000000" points="95.0498047 6.76269531 95.0498047 9.79394531 100.380859 13.4023438 102.265625 11.7089844"></polygon>
                <polygon id="Path-35" fill="#000000" points="93.8896484 22.3720703 93.8896484 24.9384766 99.6171875 25.96875 99.6757812 23.5634766"></polygon>
                <polygon id="Path-36" fill="#000000" points="77.0214844 25.1679688 79.3554688 29.3730469 83.5107422 26.5166016 82.9492188 23.5498047"></polygon>
                <polygon id="Path-37" fill="#000000" points="65.3476562 34.9804688 69.109375 31.3916016 72.6298828 37.0751953 70.5087891 40.9853516"></polygon>
                <polygon id="Path-38" fill="#000000" points="58.9003906 52.0449219 61.1552734 47.1455078 66.8095703 52.0654297 65.0986328 58.4726562"></polygon>
                <polygon id="Path-39" fill="#000000" points="57.8779297 65.8916016 57.8779297 71.9716797 66.0507812 76.1689453 65.7685547 69.6230469"></polygon>
                <polygon id="Path-40" fill="#000000" points="61.3759766 90.6533203 62.9316406 96.640625 72.7392578 97.4931641 69.546875 89.9453125"></polygon>
            </g>
        </g>
    </g>
</svg>