<?xml version="1.0" encoding="UTF-8"?>
<svg width="127px" height="189px" viewBox="0 0 127 189" version="1.1" xmlns="http://www.w3.org/2000/svg" xmlns:xlink="http://www.w3.org/1999/xlink">
    <!-- Generator: Sketch 42 (36781) - http://www.bohemiancoding.com/sketch -->
    <title>Combined Shape</title>
    <desc>Created with Sketch.</desc>
    <defs></defs>
    <g id="Page-1" stroke="none" stroke-width="1" fill="none" fill-rule="evenodd">
        <g id="Les-svgs" transform="translate(-78.000000, -603.000000)" fill="#000000">
            <g id="Ruby" transform="translate(77.000000, 603.000000)">
                <path d="M7.75878906,39.7041016 L15.5009766,28.1523437 L30.1054687,14.2509766 L46.859375,4.66015625 L53.0859375,7.13378906 L47.9482422,17.4472656 L29.4619141,34.8720703 L12.1660156,43.7050781 L7.75878906,39.7041016 Z M50.8994141,3.26953125 L71.7275391,0.634765625 L54.6455078,4.72753906 L50.8994141,3.26953125 Z M6.14648438,42.6054688 L10.3662109,47.0566406 L0.98046875,67.9804688 L6.14648438,42.6054688 Z M1.03417969,74.3027344 L11.2314453,50.0078125 L20.8115234,73.7363281 L1.03417969,74.3027344 Z M12.5458984,46.7021484 L28.4951172,38.3955078 L20.8583984,68.3554688 L12.5458984,46.7021484 Z M31.2919922,36.5966797 L49.46875,20.0087891 L59.7314453,46.1835938 L31.2919922,36.5966797 Z M50.9267578,17.703125 L56.1865234,6.96582031 L80.0009766,13.5576172 L50.9267578,17.703125 Z M61.6474609,5.64257813 L82.9716797,1.26074219 L86.7529297,13.4111328 L61.6474609,5.64257813 Z M51.6601562,20.3525391 L83.7783203,15.0888672 L62.5322266,46.9355469 L51.6601562,20.3525391 Z M22.5917969,72.4111328 L30.2402344,39.1494141 L59.8808594,48.5927734 L22.5917969,72.4111328 Z M5.02050781,76.6416016 L20.2773438,76.0820312 L69.7998047,82.8515625 L5.02050781,76.6416016 Z M24.6113281,74.4882812 L62.4267578,50.3740234 L81.4970703,82.5605469 L24.6113281,74.4882812 Z M83.7373047,81.9121094 L64.0947266,49.0009766 L87.2099609,14.5126953 L83.7373047,81.9121094 Z M31.9121094,187.708008 C31.9121094,187.708008 32.0332031,168.070313 34.6943359,158.849609 C37.3554688,149.628906 38.9970703,141.040039 48.796875,123.091797 C58.5966797,105.143555 65.5657767,98.595753 72.7001953,94.7910156 C79.834614,90.9862782 81.449188,90.1255118 90.6435547,88.5644531 C99.8379214,87.0033944 103.386977,88.9702867 110.760742,91.6376953 C118.134508,94.3051039 127.6875,101.964844 127.6875,101.964844 L125.503906,105.143555 C125.503906,105.143555 118.153021,100.566428 110.760742,100.3125 C103.368463,100.058572 96.8945312,102.417969 87.6503906,111.014648 C78.40625,119.611328 76.3369141,131.755859 75.2080078,141.385742 C74.0791016,151.015625 76.7060547,162.834961 76.7060547,162.834961 L84.2880859,188.015625 L31.9121094,187.708008 Z M20.453125,170.992188 L21.3505859,161.148438 L31.5722656,162.209961 L29.6210938,172.149414 L20.453125,170.992188 Z M28.3574219,136.360352 L31.0693359,128.182617 L40.1640625,131.875977 L37.5205078,139.751953 L28.3574219,136.360352 Z M43.5605469,108.177734 L48.7460938,102.244141 L55.8974609,106.924805 L50.40625,112.881836 L43.5605469,108.177734 Z M64.6357422,88.6259766 L71.0498047,84.8007812 L75.8457031,90.0693359 L68.953125,93.625 L64.6357422,88.6259766 Z M87.6113281,81.7958984 L96.0263672,81.28125 L96.2705078,86.7255859 L88.2373047,86.3447266 L87.6113281,81.7958984 Z M115.049805,87.7626953 L122.265625,92.7089844 L120.380859,94.4023438 L115.049805,90.7939453 L115.049805,87.7626953 Z M113.889648,103.37207 L119.675781,104.563477 L119.617188,106.96875 L113.889648,105.938477 L113.889648,103.37207 Z M97.0214844,106.167969 L102.949219,104.549805 L103.510742,107.516602 L99.3554688,110.373047 L97.0214844,106.167969 Z M85.3476562,115.980469 L89.109375,112.391602 L92.6298828,118.075195 L90.5087891,121.985352 L85.3476562,115.980469 Z M78.9003906,133.044922 L81.1552734,128.145508 L86.8095703,133.06543 L85.0986328,139.472656 L78.9003906,133.044922 Z M77.8779297,146.891602 L85.7685547,150.623047 L86.0507812,157.168945 L77.8779297,152.97168 L77.8779297,146.891602 Z M81.3759766,171.65332 L89.546875,170.945312 L92.7392578,178.493164 L82.9316406,177.640625 L81.3759766,171.65332 Z" id="Combined-Shape"></path>
            </g>
        </g>
    </g>
</svg>