<?xml version="1.0" encoding="UTF-8"?>
<svg width="87px" height="83px" viewBox="0 0 87 83" version="1.1" xmlns="http://www.w3.org/2000/svg" xmlns:xlink="http://www.w3.org/1999/xlink">
    <!-- Generator: Sketch 42 (36781) - http://www.bohemiancoding.com/sketch -->
    <title>Ruby</title>
    <desc>Created with Sketch.</desc>
    <defs></defs>
    <g id="Page-1" stroke="none" stroke-width="1" fill="none" fill-rule="evenodd">
        <g id="Les-svgs" transform="translate(-54.000000, -371.000000)" fill="#F71E1E">
            <g id="Ruby" transform="translate(53.000000, 371.000000)">
                <polygon id="Path-5" points="7.75878906 39.7041016 15.5009766 28.1523437 30.1054687 14.2509766 46.859375 4.66015625 53.0859375 7.13378906 47.9482422 17.4472656 29.4619141 34.8720703 12.1660156 43.7050781"></polygon>
                <polygon id="Path-8" points="50.8994141 3.26953125 54.6455078 4.72753906 71.7275391 0.634765625"></polygon>
                <polygon id="Path-9" points="6.14648438 42.6054688 10.3662109 47.0566406 0.98046875 67.9804688"></polygon>
                <polygon id="Path-10" points="1.03417969 74.3027344 20.8115234 73.7363281 11.2314453 50.0078125"></polygon>
                <polygon id="Path-11" points="12.5458984 46.7021484 28.4951172 38.3955078 20.8583984 68.3554688"></polygon>
                <polygon id="Path-12" points="31.2919922 36.5966797 49.46875 20.0087891 59.7314453 46.1835938"></polygon>
                <polygon id="Path-13" points="50.9267578 17.703125 56.1865234 6.96582031 80.0009766 13.5576172"></polygon>
                <polygon id="Path-14" points="61.6474609 5.64257812 82.9716797 1.26074219 86.7529297 13.4111328"></polygon>
                <polygon id="Path-15" points="51.6601562 20.3525391 83.7783203 15.0888672 62.5322266 46.9355469"></polygon>
                <polygon id="Path-16" points="22.5917969 72.4111328 30.2402344 39.1494141 59.8808594 48.5927734"></polygon>
                <polygon id="Path-17" points="5.02050781 76.6416016 20.2773438 76.0820312 69.7998047 82.8515625"></polygon>
                <polygon id="Path-18" points="24.6113281 74.4882812 62.4267578 50.3740234 81.4970703 82.5605469"></polygon>
                <polygon id="Path-19" points="83.7373047 81.9121094 64.0947266 49.0009766 87.2099609 14.5126953"></polygon>
            </g>
        </g>
    </g>
</svg>