<?xml version="1.0" encoding="UTF-8"?>
<svg width="30px" height="31px" viewBox="0 0 30 31" version="1.1" xmlns="http://www.w3.org/2000/svg" xmlns:xlink="http://www.w3.org/1999/xlink">
    <!-- Generator: Sketch 42 (36781) - http://www.bohemiancoding.com/sketch -->
    <title>Skills icon</title>
    <desc>Created with Sketch.</desc>
    <defs></defs>
    <g id="Page-1" stroke="none" stroke-width="1" fill="none" fill-rule="evenodd">
        <g id="About-me---learn-more" transform="translate(-36.000000, -1417.000000)" stroke="#F71E1E">
            <g id="Skills-icon" transform="translate(36.000000, 1418.000000)">
                <polygon id="Path-42" points="0 6.80883789 3.4264606 4 6.87648607 6.86586217 3.20482337 9.55332729"></polygon>
                <polygon id="Path-47" points="23 7.09423828 26.0475119 3 29.2319548 7.09423828"></polygon>
                <path d="M15.6028787,0 C18.510912,0 18.510912,0.771135603 18.510912,2.80151367 C18.510912,4.83189174 18.510912,5.26506696 15.255627,5.26506696 C12.0003421,5.26506696 12,4.66761998 12,2.33380999 C12,9.99003987e-15 12.6948454,2.88987372e-16 15.6028787,0 Z" id="Path-48"></path>
                <path d="M14.8668706,8.00000293 C16.6912412,7.99756599 18.3072328,9.51629425 18.4480951,10.8637725 C18.5889574,12.2112507 16.7701517,14.0763765 14.7278858,14.0791045 C12.6856199,14.0818325 11.1497232,12.2419684 11.0066889,10.8737125 C10.8636545,9.50545653 13.0424999,8.00243987 14.8668706,8.00000293 Z" id="Path-49"></path>
                <path d="M6.15671356,14.2358573 C7.21169357,13.1428588 10.4684156,16.2021241 14.5101443,16.2238595 C18.5518729,16.2455949 21.5165317,13.3008919 22.5973555,14.324271 C23.6781794,15.3476502 18.5690212,17.2999188 18.0697146,20.529977 C17.5031881,24.194886 20.9368205,27.6349844 19.8421755,28.4605364 C18.7475305,29.2860883 14.5101443,23.5894078 14.5101443,23.5894078 C14.5101443,23.5894078 10.0158628,29.4171951 8.93227402,28.4605364 C7.84868521,27.5038777 11.0823346,24.2636511 10.3538093,20.529977 C9.69455441,17.1513116 5.10173355,15.3288558 6.15671356,14.2358573 Z" id="Path-50"></path>
            </g>
        </g>
    </g>
</svg>