<?xml version="1.0" encoding="UTF-8"?>
<svg width="31px" height="26px" viewBox="0 0 31 26" version="1.1" xmlns="http://www.w3.org/2000/svg" xmlns:xlink="http://www.w3.org/1999/xlink">
    <!-- Generator: Sketch 42 (36781) - http://www.bohemiancoding.com/sketch -->
    <title>Path 41</title>
    <desc>Created with Sketch.</desc>
    <defs></defs>
    <g id="Page-1" stroke="none" stroke-width="1" fill="none" fill-rule="evenodd">
        <g id="iPhone-7-version-deux!" transform="translate(-172.000000, -474.000000)" stroke="#000000" stroke-width="0.1" fill="#F71E1E">
            <path d="M187.241272,482.422597 C186.58136,480.268422 188.068665,477.70873 188.068665,477.70873 C188.068665,477.70873 189.439026,475.366201 192.635925,475.008901 C196.260071,474.848378 197.714539,476.912221 197.714539,476.912221 C197.714539,476.912221 198.874545,476.643768 199.946716,476.227041 C200.863376,475.870757 201.6922,475.366201 201.6922,475.366201 C201.6922,475.366201 201.414763,476.365181 200.776184,477.176626 C200.093963,478.043526 199.050598,478.72289 199.050598,478.72289 C199.050598,478.72289 200.086755,478.685401 201.047058,478.451894 C201.79989,478.268836 202.476868,477.88976 202.476868,477.88976 C202.476868,477.88976 201.867703,478.810395 201.075134,479.60851 C200.332791,480.356049 199.407043,480.981069 199.407043,480.981069 C199.407043,480.981069 199.635559,487.355947 196.473938,491.434438 C196.473938,491.434438 195.989803,492.467905 194.495544,494.029653 C193.778102,494.779499 192.936325,495.733037 191.598694,496.59789 C189.15387,497.693593 187.5,499.343618 181.984192,499.343618 C176.348083,499.343618 172.523132,496.629751 172.523132,496.629751 C172.523132,496.629751 175.238006,496.880014 177.542297,496.214467 C179.739105,495.579965 181.52533,494.029653 181.52533,494.029653 C181.52533,494.029653 179.056702,493.815786 177.542297,492.470937 C177.143738,492.000722 176.649475,491.962636 175.816711,489.765126 C177.683289,490.043935 178.543884,489.623769 178.543884,489.623769 C178.543884,489.623769 176.13092,489.255605 175.003479,487.500844 C174.591248,487.306386 173.278136,484.579094 173.714905,483.583608 C175.428894,484.395986 176.348083,484.225454 176.348083,484.225454 C176.348083,484.225454 173.950134,482.577016 173.764587,479.954335 C173.764587,479.60851 173.378723,478.109609 174.563904,476.095815 C174.976135,476.505483 177.15155,479.318471 180.796448,480.988271 C183.704651,482.052236 186.728821,482.851064 187.241272,482.422597 Z" id="Path-41"></path>
        </g>
    </g>
</svg>