<?xml version="1.0" encoding="UTF-8"?>
<svg width="31px" height="26px" viewBox="0 0 31 26" version="1.1" xmlns="http://www.w3.org/2000/svg" xmlns:xlink="http://www.w3.org/1999/xlink">
    <!-- Generator: Sketch 42 (36781) - http://www.bohemiancoding.com/sketch -->
    <title>Path 41</title>
    <desc>Created with Sketch.</desc>
    <defs></defs>
    <g id="Page-1" stroke="none" stroke-width="1" fill="none" fill-rule="evenodd">
        <g id="Les-svgs" transform="translate(-396.000000, -472.000000)" stroke="#000000" stroke-width="0.1" fill="#000000">
            <path d="M410.784546,480.265259 C410.124634,478.111084 411.611938,475.551392 411.611938,475.551392 C411.611938,475.551392 412.9823,473.208862 416.179199,472.851562 C419.803345,472.69104 421.257812,474.754883 421.257812,474.754883 C421.257812,474.754883 422.417819,474.486429 423.48999,474.069702 C424.40665,473.713419 425.235474,473.208862 425.235474,473.208862 C425.235474,473.208862 424.958037,474.207843 424.319458,475.019287 C423.637237,475.886187 422.593872,476.565552 422.593872,476.565552 C422.593872,476.565552 423.630029,476.528062 424.590332,476.294556 C425.343164,476.111498 426.020142,475.732422 426.020142,475.732422 C426.020142,475.732422 425.410977,476.653056 424.618408,477.451172 C423.876065,478.198711 422.950317,478.82373 422.950317,478.82373 C422.950317,478.82373 423.178833,485.198608 420.017212,489.2771 C420.017212,489.2771 419.533077,490.310567 418.038818,491.872314 C417.321376,492.62216 416.479599,493.575698 415.141968,494.440552 C412.697144,495.536255 411.043274,497.186279 405.527466,497.186279 C399.891357,497.186279 396.066406,494.472412 396.066406,494.472412 C396.066406,494.472412 398.78128,494.722676 401.085571,494.057129 C403.282379,493.422627 405.068604,491.872314 405.068604,491.872314 C405.068604,491.872314 402.599976,491.658447 401.085571,490.313599 C400.687012,489.843384 400.192749,489.805298 399.359985,487.607788 C401.226562,487.886597 402.087158,487.466431 402.087158,487.466431 C402.087158,487.466431 399.674194,487.098267 398.546753,485.343506 C398.134521,485.149048 396.82141,482.421755 397.258179,481.42627 C398.972168,482.238647 399.891357,482.068115 399.891357,482.068115 C399.891357,482.068115 397.493408,480.419678 397.307861,477.796997 C397.307861,477.451172 396.921997,475.952271 398.107178,473.938477 C398.519409,474.348145 400.694824,477.161133 404.339722,478.830933 C407.247925,479.894897 410.272095,480.693726 410.784546,480.265259 Z" id="Path-41"></path>
        </g>
    </g>
</svg>